<svg width="25" height="38" viewBox="0 0 25 38" fill="none" xmlns="http://www.w3.org/2000/svg">
<rect x="6" width="13" height="25" rx="6.5" fill="white"/>
<path d="M25 16.5C25 20.0804 23.683 23.5142 21.3388 26.0459C18.9946 28.5777 15.8152 30 12.5 30C9.1848 30 6.00537 28.5777 3.66117 26.0459C1.31696 23.5142 5.00582e-07 20.0804 0 16.5H2.84824C2.84824 19.2646 3.86512 21.916 5.67518 23.8708C7.48523 25.8257 9.9402 26.9239 12.5 26.9239C15.0598 26.9239 17.5148 25.8257 19.3248 23.8708C21.1349 21.916 22.1518 19.2646 22.1518 16.5H25Z" fill="white"/>
<rect x="12" y="28" width="1" height="6" fill="white"/>
<rect x="6" y="34" width="13" height="4" fill="white"/>
</svg>
